<?xml version="1.0" standalone="no"?>
<!DOCTYPE svg PUBLIC "-//W3C//DTD SVG 20010904//EN"
 "http://www.w3.org/TR/2001/REC-SVG-20010904/DTD/svg10.dtd">
<svg version="1.0" xmlns="http://www.w3.org/2000/svg"
 width="16.000000pt" height="16.000000pt" viewBox="0 0 16.000000 16.000000"
 preserveAspectRatio="xMidYMid meet">
<metadata>
Created by potrace 1.11, written by Peter Selinger 2001-2013
</metadata>
<g transform="translate(0.000000,16.000000) scale(0.003265,-0.003265)"
fill="#000000" stroke="none">
<path d="M1339 4117 c-16 -12 -123 -104 -143 -122 -9 -8 -297 -248 -395 -330
-14 -11 -37 -31 -52 -45 -15 -14 -47 -41 -70 -60 -24 -19 -64 -53 -89 -75 -25
-22 -94 -80 -153 -129 l-107 -89 0 -914 0 -914 23 18 c12 10 33 28 47 40 14
12 57 48 95 80 86 72 123 104 141 121 8 7 14 11 14 8 0 -3 14 8 30 24 17 17
35 30 41 30 6 0 7 5 4 10 -3 6 0 10 7 10 8 0 21 8 29 18 9 9 27 26 40 37 93
78 276 232 286 240 6 5 24 20 40 32 15 12 44 36 63 53 19 17 53 46 74 63 22
18 51 44 66 58 l26 26 1004 1 c553 0 1029 1 1058 1 l52 1 0 910 0 910 -1057 0
c-816 -1 -1062 -3 -1074 -13z"/>
<path d="M1712 1985 c-143 -33 -203 -143 -205 -375 -2 -200 20 -293 83 -359
59 -61 100 -75 215 -74 127 2 159 11 163 46 3 26 3 26 -45 21 -64 -8 -172 -8
-203 0 -14 3 -36 14 -50 24 -30 22 -82 125 -84 167 -1 17 -4 35 -7 40 -9 18 1
290 11 290 1 0 3 7 5 15 7 33 34 86 52 102 48 44 168 61 265 39 41 -10 63 4
52 32 -7 19 -23 26 -82 33 -91 10 -119 10 -170 -1z"/>
<path d="M2096 1982 c-9 -16 2 -609 12 -640 6 -18 11 -35 11 -37 1 -15 32 -63
51 -80 37 -34 117 -53 199 -49 122 6 191 53 222 153 17 52 22 638 6 648 -7 4
-22 8 -34 9 l-23 1 -1 -294 c-1 -161 -3 -297 -4 -303 -1 -5 -3 -21 -4 -33 0
-13 -10 -34 -21 -47 -11 -13 -20 -26 -20 -30 0 -18 -87 -45 -144 -44 -76 1
-118 22 -154 76 l-27 42 -2 309 c-2 171 -4 311 -6 313 -7 7 -57 12 -61 6z"/>
<path d="M2889 1986 c-2 -2 -26 -6 -54 -9 -27 -3 -51 -6 -53 -6 -1 -1 -1 -178
0 -393 l3 -393 150 -1 c180 -1 235 12 282 63 18 19 37 52 43 72 12 42 13 154
3 165 -5 4 -8 11 -8 14 -1 18 -41 65 -67 78 l-29 15 30 28 c76 71 83 230 13
304 -47 50 -78 60 -198 64 -61 2 -113 1 -115 -1z m226 -73 c61 -29 85 -115 59
-204 -22 -72 -45 -83 -190 -85 -67 -1 -126 1 -131 5 -5 3 -9 69 -8 146 0 164
-11 152 139 153 69 0 109 -4 131 -15z m12 -368 c53 -21 78 -67 76 -147 -3
-125 -52 -157 -238 -155 l-120 2 0 157 c-1 183 -17 164 140 161 62 -1 116 -8
142 -18z"/>
<path d="M3422 1976 c-11 -19 -8 -777 3 -786 14 -12 55 -8 56 5 6 54 3 764 -3
777 -9 18 -45 20 -56 4z"/>
<path d="M3627 1984 c-7 -7 25 -91 57 -148 13 -22 33 -58 45 -80 12 -21 29
-45 37 -53 7 -8 14 -18 14 -22 0 -4 14 -23 30 -41 17 -18 30 -36 30 -39 0 -3
-25 -40 -56 -81 -46 -62 -105 -160 -109 -180 0 -3 -11 -27 -24 -55 -33 -72
-33 -99 1 -101 22 -2 29 4 44 39 10 23 18 44 19 47 7 29 20 58 34 74 9 10 14
20 12 23 -4 6 95 158 114 173 12 10 19 8 34 -11 38 -47 112 -177 142 -249 16
-41 35 -80 41 -87 11 -14 64 -11 61 3 -18 75 -93 224 -164 322 l-56 79 44 59
c23 32 49 70 57 84 7 14 30 55 50 92 43 79 69 148 56 149 -6 1 -17 2 -25 2
-29 0 -34 -3 -40 -25 -24 -80 -169 -320 -189 -312 -6 2 -23 22 -36 44 -14 22
-28 40 -33 40 -4 0 -5 5 -2 10 3 6 0 13 -8 16 -9 3 -18 16 -21 29 -3 13 -12
30 -19 37 -6 7 -25 42 -42 78 -16 36 -32 69 -35 73 -9 10 -55 18 -63 11z"/>
</g>
</svg>
